<?xml version="1.0" encoding="UTF-8"?>
<svg width="16px" height="17px" viewBox="0 0 16 17" version="1.1" xmlns="http://www.w3.org/2000/svg" xmlns:xlink="http://www.w3.org/1999/xlink">
    <!-- Generator: Sketch 47.1 (45422) - http://www.bohemiancoding.com/sketch -->
    <title>Verified</title>
    <desc>Created with Sketch.</desc>
    <defs></defs>
    <g id="Desktop" stroke="none" stroke-width="1" fill="none" fill-rule="evenodd" stroke-linecap="round" stroke-linejoin="round">
        <g id="Content" transform="translate(-294.000000, -191.000000)" stroke="#000000" stroke-width="2">
            <g id="Profile" transform="translate(19.000000, 39.000000)">
                <g id="Verified" transform="translate(276.000000, 153.000000)">
                    <path d="M13.6121333,8.43204545 C12.9717362,7.77340909 12.9717362,7.22727273 13.6121333,6.56863636 L13.604178,6.56863636 C13.9475794,6.2175 14.0954143,5.68909091 13.9356465,5.1825 C13.7758787,4.67659091 13.3542508,4.33772727 12.8756103,4.26136364 L12.8822397,4.25659091 C11.9872748,4.11068182 11.6756944,3.66886364 11.8169,2.74909091 L11.8109336,2.75386364 C11.8878342,2.26227273 11.7055266,1.74545455 11.2865504,1.4325 C10.8682372,1.11954545 10.33391,1.10045455 9.90300097,1.32818182 L9.90565272,1.32068182 C9.09819549,1.74409091 8.59370046,1.575 8.18201661,0.744545455 L8.17936486,0.752045455 C7.96059566,0.3075 7.51709083,0 7,0 C6.48290917,0 6.03940434,0.3075 5.82129808,0.752045455 L5.81864633,0.744545455 C5.40696247,1.575 4.90246744,1.74340909 4.09501022,1.32068182 L4.09766197,1.32818182 C3.66675294,1.10045455 3.13242575,1.11954545 2.71411252,1.4325 C2.29513636,1.74477273 2.11216576,2.26227273 2.18972938,2.75386364 L2.18310001,2.74909091 C2.32496852,3.66954545 2.01272521,4.11068182 1.11776031,4.25659091 L1.12438968,4.26136364 C0.646412127,4.33772727 0.224784218,4.67659091 0.0643534722,5.1825 C-0.0954143364,5.68840909 0.0524206068,6.2175 0.395821955,6.56863636 L0.387866711,6.56863636 C1.02826382,7.22727273 1.02826382,7.77340909 0.387866711,8.43204545 L0.395821955,8.43204545 C0.0524206068,8.78318182 -0.0954143364,9.31159091 0.0643534722,9.81818182 C0.224121281,10.3240909 0.645749191,10.6629545 1.12438968,10.7393182 L1.11776031,10.7440909 C2.01272521,10.89 2.32430559,11.3318182 2.18310001,12.2515909 L2.18906645,12.2468182 C2.11216576,12.7384091 2.29447342,13.2552273 2.71344958,13.5681818 C3.13176281,13.8811364 3.66609,13.9002273 4.09699903,13.6725 L4.09434728,13.68 C4.90180451,13.2565909 5.40629954,13.4256818 5.81798339,14.2561364 L5.82063514,14.2486364 C6.03940434,14.6925 6.48290917,15 7,15 C7.51709083,15 7.96059566,14.6925 8.17870192,14.2479545 L8.18135367,14.2554545 C8.59303753,13.425 9.09753256,13.2565909 9.90498978,13.6793182 L9.90233803,13.6718182 C10.3332471,13.8995455 10.8675743,13.8804545 11.2858875,13.5675 C11.7042007,13.2545455 11.8871713,12.7377273 11.8102706,12.2461364 L11.8162371,12.2509091 C11.6743685,11.3304545 11.9866119,10.8893182 12.8815768,10.7434091 L12.8749474,10.7386364 C13.3535879,10.6622727 13.7752158,10.3240909 13.9349836,9.8175 C14.0947514,9.31159091 13.9475794,8.7825 13.6035151,8.43136364 L13.6121333,8.43136364 L13.6121333,8.43204545 Z M6.33706304,9.54545455 L9.65174786,5.45454545 L6.33706304,9.54545455 Z M4.67972062,7.5 L6.33706304,9.54545455 L4.67972062,7.5 Z" id="Shape"></path>
                </g>
            </g>
        </g>
    </g>
</svg>